<svg xmlns="http://www.w3.org/2000/svg" xmlns:xlink="http://www.w3.org/1999/xlink" width="282.5" height="457.445" viewBox="0 0 282.5 457.445">
  <defs>
    <filter id="animal" x="0" y="0" width="282.5" height="457.445" filterUnits="userSpaceOnUse">
      <feOffset dx="14" dy="3" input="SourceAlpha"/>
      <feGaussianBlur stdDeviation="4.5" result="blur"/>
      <feFlood flood-opacity="0.161"/>
      <feComposite operator="in" in2="blur"/>
      <feComposite in="SourceGraphic"/>
    </filter>
  </defs>
  <g transform="matrix(1, 0, 0, 1, 0, 0)" filter="url(#animal)">
    <path id="animal-2" data-name="animal" d="M376,316.444h0c-.08-.116-8.176-11.809-20-30.507-10.949-17.315-27.47-44.415-44-75.189-18.579-34.589-33.383-66.675-44-95.366A386.766,386.766,0,0,1,253.5,67.79c-1.783-7.818-3.15-15.366-4.062-22.433A165.3,165.3,0,0,1,248,24.342a168.383,168.383,0,0,1,8.432-53.831,129.824,129.824,0,0,1,24.72-43.976A113.406,113.406,0,0,1,321.3-103.123C337.637-110.341,356.042-114,376-114s38.3,3.66,54.547,10.878a111.875,111.875,0,0,1,39.8,29.658,129.627,129.627,0,0,1,24.377,43.976A171.03,171.03,0,0,1,503,24.342a166.57,166.57,0,0,1-1.426,21.014c-.905,7.068-2.261,14.616-4.031,22.433a389.034,389.034,0,0,1-14.387,47.592c-10.534,28.691-25.222,60.777-43.656,95.366-16.4,30.773-32.793,57.874-43.656,75.189C384.136,304.6,376.081,316.327,376,316.443ZM455.822,44.482V72.148a3.077,3.077,0,0,0,3.074,3.074h6.148a3.077,3.077,0,0,0,3.074-3.074V32.542a24.1,24.1,0,0,1-6.148.873,24.474,24.474,0,0,1-15.644-5.633,24.694,24.694,0,0,1-8.451-14.042c-6.1,0-21.339,1.61-31.238,16.514V13.74A18.465,18.465,0,0,0,388.192-4.7a6.148,6.148,0,0,0,0,12.3,6.155,6.155,0,0,1,6.148,6.148V62.926a12.31,12.31,0,0,0,12.3,12.3h33.815a3.077,3.077,0,0,0,3.074-3.074V69.074a6.155,6.155,0,0,0-6.149-6.148H431.23l24.591-18.443ZM301.74,50.63h30.741V72.148a3.078,3.078,0,0,0,3.074,3.074h12.3a3.078,3.078,0,0,0,3.074-3.074V30.177l-28.81-10.288H289.445A6.155,6.155,0,0,1,283.3,13.74a6.148,6.148,0,0,0-12.3,0,18.462,18.462,0,0,0,12.3,17.311v41.1a3.077,3.077,0,0,0,3.074,3.074h12.3a3.077,3.077,0,0,0,3.073-3.074V50.631ZM443.526-17V8.822a18.444,18.444,0,1,0,36.888,0V-17l-12.3,12.3h-12.3Zm-114.1,0h0a3.17,3.17,0,0,0-2.141.845,3.02,3.02,0,0,0-.955,2.235V14.868l24.592,8.782V16.815h6.148a12.311,12.311,0,0,0,12.3-12.3V-1.63A3.078,3.078,0,0,0,366.3-4.7H354l-1.375-2.749a6.114,6.114,0,0,0-5.5-3.4h-10.3l-5.242-5.242A3.035,3.035,0,0,0,329.43-17ZM469.656,10.667a3.074,3.074,0,1,1,3.074-3.074A3.078,3.078,0,0,1,469.656,10.667Zm-15.371,0a3.074,3.074,0,1,1,3.074-3.074A3.077,3.077,0,0,1,454.285,10.667ZM344.777,4.518a3.074,3.074,0,1,1,3.074-3.073A3.077,3.077,0,0,1,344.777,4.518Z" transform="translate(-248 124.5)" fill="#8123bf"/>
  </g>
</svg>
