<svg xmlns="http://www.w3.org/2000/svg" xmlns:xlink="http://www.w3.org/1999/xlink" width="282.5" height="457.444" viewBox="0 0 282.5 457.444">
  <defs>
    <filter id="Icon_ionic-ios-pin" x="0" y="0" width="282.5" height="457.444" filterUnits="userSpaceOnUse">
      <feOffset dx="14" dy="3" input="SourceAlpha"/>
      <feGaussianBlur stdDeviation="4.5" result="blur"/>
      <feFlood flood-opacity="0.161"/>
      <feComposite operator="in" in2="blur"/>
      <feComposite in="SourceGraphic"/>
    </filter>
  </defs>
  <g id="animal" transform="translate(-32 -22.5)">
    <g transform="matrix(1, 0, 0, 1, 32, 22.5)" filter="url(#Icon_ionic-ios-pin)">
      <path id="Icon_ionic-ios-pin-2" data-name="Icon ionic-ios-pin" d="M156.875,3.375c-82.26,0-128,61.98-128,138.342,0,107.611,128,292.1,128,292.1s127-184.491,127-292.1C283.875,65.355,239.135,3.375,156.875,3.375Z" transform="translate(-28.88 7.13)" fill="#8123bf"/>
    </g>
    <path id="Icon_awesome-dog" data-name="Icon awesome-dog" d="M95.3,14.546H83L81.624,11.8a6.148,6.148,0,0,0-5.5-3.4h-10.3L60.582,3.157A3.075,3.075,0,0,0,55.333,5.33V34.118L79.926,42.9V36.065h6.148a12.3,12.3,0,0,0,12.3-12.3V17.62A3.073,3.073,0,0,0,95.3,14.546ZM73.778,23.768a3.074,3.074,0,1,1,3.074-3.074A3.073,3.073,0,0,1,73.778,23.768ZM18.444,39.139A6.156,6.156,0,0,1,12.3,32.991a6.148,6.148,0,0,0-12.3,0A18.413,18.413,0,0,0,12.3,50.3V91.4a3.073,3.073,0,0,0,3.074,3.074h12.3A3.073,3.073,0,0,0,30.741,91.4V69.88H61.482V91.4a3.073,3.073,0,0,0,3.074,3.074h12.3A3.073,3.073,0,0,0,79.926,91.4V49.427L51.116,39.139Z" transform="translate(55 127.75)" fill="#fff"/>
    <path id="Icon_awesome-cat" data-name="Icon awesome-cat" d="M55.831,32.991c-3.877,0-20.523.38-31.238,16.514V32.991A18.464,18.464,0,0,0,6.148,14.546a6.148,6.148,0,1,0,0,12.3A6.156,6.156,0,0,1,12.3,32.991V82.176a12.308,12.308,0,0,0,12.3,12.3H58.407A3.073,3.073,0,0,0,61.482,91.4V88.324a6.149,6.149,0,0,0-6.148-6.148H49.185L73.778,63.732V91.4a3.073,3.073,0,0,0,3.074,3.074H83A3.073,3.073,0,0,0,86.074,91.4V51.793a24.348,24.348,0,0,1-6.148.872A24.632,24.632,0,0,1,55.831,32.991ZM86.074,14.546h-12.3l-12.3-12.3V28.072a18.444,18.444,0,1,0,36.889,0V2.25ZM72.241,29.917a3.074,3.074,0,1,1,3.074-3.074A3.073,3.073,0,0,1,72.241,29.917Zm15.37,0a3.074,3.074,0,1,1,3.074-3.074A3.073,3.073,0,0,1,87.611,29.917Z" transform="translate(166.045 127.75)" fill="#fff"/>
  </g>
</svg>
