<svg xmlns="http://www.w3.org/2000/svg" xmlns:xlink="http://www.w3.org/1999/xlink" width="282.501" height="457.445" viewBox="0 0 282.501 457.445">
  <defs>
    <filter id="baby" x="0" y="0" width="282.501" height="457.445" filterUnits="userSpaceOnUse">
      <feOffset dx="14" dy="3" input="SourceAlpha"/>
      <feGaussianBlur stdDeviation="4.5" result="blur"/>
      <feFlood flood-opacity="0.161"/>
      <feComposite operator="in" in2="blur"/>
      <feComposite in="SourceGraphic"/>
    </filter>
  </defs>
  <g transform="matrix(1, 0, 0, 1, 0, 0)" filter="url(#baby)">
    <path id="baby-2" data-name="baby" d="M31,316.444h0c-.08-.116-8.176-11.809-20-30.507C.051,268.621-16.47,241.521-33,210.748c-18.579-34.589-33.383-66.675-44-95.366A386.764,386.764,0,0,1-91.5,67.79c-1.783-7.818-3.15-15.366-4.062-22.433A165.3,165.3,0,0,1-97,24.342a168.382,168.382,0,0,1,8.432-53.831,129.826,129.826,0,0,1,24.72-43.976A113.407,113.407,0,0,1-23.7-103.123C-7.363-110.341,11.042-114,31-114s38.3,3.66,54.548,10.878a111.875,111.875,0,0,1,39.8,29.658,129.626,129.626,0,0,1,24.377,43.976A171.029,171.029,0,0,1,158,24.342a166.567,166.567,0,0,1-1.426,21.014c-.905,7.068-2.261,14.616-4.031,22.433a389.046,389.046,0,0,1-14.387,47.592c-10.534,28.691-25.222,60.777-43.657,95.366-16.4,30.775-32.793,57.874-43.657,75.189C39.137,304.6,31.08,316.327,31,316.443ZM45.958,77.9A26.929,26.929,0,1,0,90.464,53.953,60.8,60.8,0,0,0,103.4,16.3H-8.712L-16.027.9H-42.9V16.3h17.095c.144.311,14.586,31.39,16.323,34.034A26.858,26.858,0,0,0-23.65,74.05,26.981,26.981,0,0,0,3.3,101,27.007,27.007,0,0,0,29.942,77.9H45.958ZM41.8-53V8.6h61.6A61.187,61.187,0,0,0,85.337-34.937,61.182,61.182,0,0,0,41.8-53ZM72.6,85.6a11.534,11.534,0,1,1,8.171-3.378A11.478,11.478,0,0,1,72.6,85.6Zm-69.3,0a11.479,11.479,0,0,1-8.172-3.378,11.571,11.571,0,0,1,0-16.343A11.478,11.478,0,0,1,3.3,62.5,11.535,11.535,0,0,1,14.85,74.05,11.534,11.534,0,0,1,3.3,85.6Z" transform="translate(97 124.5)" fill="#9ae1b9"/>
  </g>
</svg>
