<svg xmlns="http://www.w3.org/2000/svg" xmlns:xlink="http://www.w3.org/1999/xlink" width="282.501" height="457.445" viewBox="0 0 282.501 457.445">
  <defs>
    <filter id="bakery" x="0" y="0" width="282.501" height="457.445" filterUnits="userSpaceOnUse">
      <feOffset dx="14" dy="3" input="SourceAlpha"/>
      <feGaussianBlur stdDeviation="4.5" result="blur"/>
      <feFlood flood-opacity="0.161"/>
      <feComposite operator="in" in2="blur"/>
      <feComposite in="SourceGraphic"/>
    </filter>
  </defs>
  <g transform="matrix(1, 0, 0, 1, 0, 0)" filter="url(#bakery)">
    <path id="bakery-2" data-name="bakery" d="M31,316.444h0c-.08-.116-8.176-11.809-20-30.507C.051,268.621-16.47,241.521-33,210.748c-18.579-34.589-33.383-66.675-44-95.366A386.764,386.764,0,0,1-91.5,67.79c-1.783-7.818-3.15-15.366-4.062-22.433A165.3,165.3,0,0,1-97,24.342a168.382,168.382,0,0,1,8.432-53.831,129.826,129.826,0,0,1,24.72-43.976A113.407,113.407,0,0,1-23.7-103.123C-7.363-110.341,11.042-114,31-114s38.3,3.66,54.548,10.878a111.875,111.875,0,0,1,39.8,29.658,129.626,129.626,0,0,1,24.377,43.976A171.029,171.029,0,0,1,158,24.342a166.567,166.567,0,0,1-1.426,21.014c-.905,7.068-2.261,14.616-4.031,22.433a389.046,389.046,0,0,1-14.387,47.592c-10.534,28.691-25.222,60.777-43.657,95.366-16.4,30.775-32.793,57.874-43.657,75.189C39.137,304.6,31.08,316.327,31,316.443ZM-27.4-11.466c-13.814,5.883-24.218,12.612-30.922,20-5.928,6.534-8.829,13.382-8.621,20.355.355,11.962,10.242,23.143,25.187,28.483C-27.525,62.452,3.33,66,33.273,66h.01c32.784,0,59.935-3.947,76.451-11.113,16.32-7.083,19.145-18.548,18.642-26.918-.562-9.352-5.532-19.5-13.994-28.577A71.652,71.652,0,0,0,82.974-20.251a61.309,61.309,0,0,1-.822,14.57,63.875,63.875,0,0,1-3.131,11.4,51.092,51.092,0,0,1-4.97,10.075c.69-8.429-.782-18.55-2.139-25.556-1.469-7.585-3.124-13.261-3.141-13.317a32.165,32.165,0,0,0-6.009-.472A76.1,76.1,0,0,0,54.094-23,51.31,51.31,0,0,1,49.931.791c-2.637,6.136-6.412,11.682-10.1,14.835a80.191,80.191,0,0,0,.259-24.462A57.946,57.946,0,0,0,37.9-18.659,54.146,54.146,0,0,0,25-19.952c-4.908,0-8.823.414-8.862.418a49.981,49.981,0,0,1-.18,14.391A54.426,54.426,0,0,1,12.849,6.272a47.945,47.945,0,0,1-5.38,10.234C8.449,9.03,6.81.444,5.262-5.442a95.454,95.454,0,0,0-3.63-11.092c-.573-.037-1.205-.057-1.877-.057a93.653,93.653,0,0,0-15.15,1.766,24,24,0,0,1,2.5,9.082,62.808,62.808,0,0,1,.123,10.371A98.323,98.323,0,0,1-14.284,16.69,60.144,60.144,0,0,0-21.971-4.03,45.3,45.3,0,0,0-27.4-11.466Z" transform="translate(97 124.5)" fill="#d48447"/>
  </g>
</svg>
