<svg xmlns="http://www.w3.org/2000/svg" xmlns:xlink="http://www.w3.org/1999/xlink" width="282.5" height="457.444" viewBox="0 0 282.5 457.444">
  <defs>
    <filter id="Icon_ionic-ios-pin" x="0" y="0" width="282.5" height="457.444" filterUnits="userSpaceOnUse">
      <feOffset dx="14" dy="3" input="SourceAlpha"/>
      <feGaussianBlur stdDeviation="4.5" result="blur"/>
      <feFlood flood-opacity="0.161"/>
      <feComposite operator="in" in2="blur"/>
      <feComposite in="SourceGraphic"/>
    </filter>
  </defs>
  <g id="bakery" transform="translate(-32 -22.5)">
    <g transform="matrix(1, 0, 0, 1, 32, 22.5)" filter="url(#Icon_ionic-ios-pin)">
      <path id="Icon_ionic-ios-pin-2" data-name="Icon ionic-ios-pin" d="M156.875,3.375c-82.26,0-128,61.98-128,138.342,0,107.611,128,292.1,128,292.1s127-184.491,127-292.1C283.875,65.355,239.135,3.375,156.875,3.375Z" transform="translate(-28.88 7.13)" fill="#d48447"/>
    </g>
    <path id="Icon_map-bakery" data-name="Icon map-bakery" d="M150.65,13.385a61.4,61.4,0,0,1-8.923,36.041c1.335-16.319-5.279-38.874-5.279-38.874-5.65-1.107-14.678.081-14.678.081,1.3,17.6-7.649,32.971-14.259,38.629,3.269-19.518-1.934-34.286-1.934-34.286-8.943-2.255-21.761-.875-21.761-.875a53.022,53.022,0,0,1-8.67,36.041c1.9-14.475-5.837-33.041-5.837-33.041-6.566-.427-17.027,1.71-17.027,1.71,5.516,9.855,1.111,31.514,1.111,31.514A57.083,57.083,0,0,0,40.274,22.169C-17.707,46.861-2.434,80.879,25.917,91.01c26.747,9.541,112.933,14.243,151.493-2.487S188.82,24.75,150.65,13.385Z" transform="translate(61.323 113.364)" fill="#fff"/>
  </g>
</svg>
