<svg xmlns="http://www.w3.org/2000/svg" xmlns:xlink="http://www.w3.org/1999/xlink" width="282.5" height="457.445" viewBox="0 0 282.5 457.445">
  <defs>
    <filter id="bank" x="0" y="0" width="282.5" height="457.445" filterUnits="userSpaceOnUse">
      <feOffset dx="14" dy="3" input="SourceAlpha"/>
      <feGaussianBlur stdDeviation="4.5" result="blur"/>
      <feFlood flood-opacity="0.161"/>
      <feComposite operator="in" in2="blur"/>
      <feComposite in="SourceGraphic"/>
    </filter>
  </defs>
  <g transform="matrix(1, 0, 0, 1, 0, 0)" filter="url(#bank)">
    <path id="bank-2" data-name="bank" d="M376,316.444h0c-.08-.116-8.176-11.809-20-30.507-10.949-17.315-27.47-44.415-44-75.189-18.579-34.589-33.383-66.675-44-95.366A386.766,386.766,0,0,1,253.5,67.79c-1.783-7.818-3.15-15.366-4.062-22.433A165.3,165.3,0,0,1,248,24.342a168.383,168.383,0,0,1,8.432-53.831,129.824,129.824,0,0,1,24.72-43.976A113.406,113.406,0,0,1,321.3-103.123C337.637-110.341,356.042-114,376-114s38.3,3.66,54.547,10.878a111.875,111.875,0,0,1,39.8,29.658,129.627,129.627,0,0,1,24.377,43.976A171.03,171.03,0,0,1,503,24.342a166.57,166.57,0,0,1-1.426,21.014c-.905,7.068-2.261,14.616-4.031,22.433a389.034,389.034,0,0,1-14.387,47.592c-10.534,28.691-25.222,60.777-43.656,95.366-16.4,30.773-32.793,57.874-43.656,75.189C384.136,304.6,376.081,316.327,376,316.443ZM322.281,26.73a4.3,4.3,0,0,0-4.3,4.3V41.185a4.3,4.3,0,0,0,4.3,4.3h10.785c9.382,33.861,38.554,55.74,74.321,55.74a88.722,88.722,0,0,0,21.883-2.789,4.306,4.306,0,0,0,3.147-5L429.259,77.5a4.288,4.288,0,0,0-5.166-3.355,75.129,75.129,0,0,1-16.268,1.939,46.648,46.648,0,0,1-14.39-2.23,44.529,44.529,0,0,1-12.361-6.267,48.591,48.591,0,0,1-16.749-22.1H405.04a4.274,4.274,0,0,0,4.193-3.356l2.282-10.157a4.3,4.3,0,0,0-4.193-5.24H359.248A77.481,77.481,0,0,1,359.3,11.6h52.5a4.323,4.323,0,0,0,4.2-3.38l2.333-10.656a4.279,4.279,0,0,0-.851-3.614,4.278,4.278,0,0,0-3.348-1.6H364.607a48.282,48.282,0,0,1,6.933-11,44.3,44.3,0,0,1,9.523-8.481,44.059,44.059,0,0,1,11.826-5.46,49.129,49.129,0,0,1,13.842-1.933,70.181,70.181,0,0,1,13.556,1.484,4.342,4.342,0,0,0,.867.088,4.305,4.305,0,0,0,4.148-3.176l4.294-15.89a4.314,4.314,0,0,0-.507-3.407,4.24,4.24,0,0,0-2.833-1.935,103.892,103.892,0,0,0-18.869-1.865c-33.673,0-62.429,20.243-73.26,51.571H322.281a4.3,4.3,0,0,0-4.3,4.3V7.3a4.3,4.3,0,0,0,4.3,4.3h7.725a105.535,105.535,0,0,0-.065,15.129Z" transform="translate(-248 124.5)" fill="#bfaa23"/>
  </g>
</svg>
