<svg xmlns="http://www.w3.org/2000/svg" xmlns:xlink="http://www.w3.org/1999/xlink" width="282.5" height="457.444" viewBox="0 0 282.5 457.444">
  <defs>
    <filter id="Icon_ionic-ios-pin" x="0" y="0" width="282.5" height="457.444" filterUnits="userSpaceOnUse">
      <feOffset dx="14" dy="3" input="SourceAlpha"/>
      <feGaussianBlur stdDeviation="4.5" result="blur"/>
      <feFlood flood-opacity="0.161"/>
      <feComposite operator="in" in2="blur"/>
      <feComposite in="SourceGraphic"/>
    </filter>
  </defs>
  <g id="bank" transform="translate(-32 -22.5)">
    <g transform="matrix(1, 0, 0, 1, 32, 22.5)" filter="url(#Icon_ionic-ios-pin)">
      <path id="Icon_ionic-ios-pin-2" data-name="Icon ionic-ios-pin" d="M156.875,3.375c-82.26,0-128,61.98-128,138.342,0,107.611,128,292.1,128,292.1s127-184.491,127-292.1C283.875,65.355,239.135,3.375,156.875,3.375Z" transform="translate(-28.88 7.13)" fill="#bfaa23"/>
    </g>
    <path id="Icon_awesome-euro-sign" data-name="Icon awesome-euro-sign" d="M111.275,138.973a4.294,4.294,0,0,0-5.166-3.355,75.24,75.24,0,0,1-16.269,1.939c-20.329,0-36.5-12.46-43.5-30.6H87.057A4.3,4.3,0,0,0,91.25,103.6l2.282-10.157a4.3,4.3,0,0,0-4.193-5.24H41.264a77.313,77.313,0,0,1,.049-15.129h52.5a4.3,4.3,0,0,0,4.2-3.379l2.332-10.656a4.3,4.3,0,0,0-4.2-5.217H46.623c7.389-16.113,22.451-26.871,42.123-26.871A70.148,70.148,0,0,1,102.3,28.435a4.3,4.3,0,0,0,5.015-3.088l4.294-15.89a4.294,4.294,0,0,0-3.34-5.342A104.3,104.3,0,0,0,89.4,2.25c-34.8,0-62.89,21.578-73.26,51.571H4.3a4.3,4.3,0,0,0-4.3,4.3V68.775a4.3,4.3,0,0,0,4.3,4.3h7.725A106.317,106.317,0,0,0,11.957,88.2H4.3A4.3,4.3,0,0,0,0,92.5v10.157a4.3,4.3,0,0,0,4.3,4.3H15.082c8.962,32.351,36.942,55.74,74.321,55.74a89.328,89.328,0,0,0,21.882-2.789,4.3,4.3,0,0,0,3.147-5l-3.158-15.933Z" transform="translate(101.984 85.528)" fill="#fff"/>
  </g>
</svg>
