<svg xmlns="http://www.w3.org/2000/svg" xmlns:xlink="http://www.w3.org/1999/xlink" width="282.5" height="457.444" viewBox="0 0 282.5 457.444">
  <defs>
    <filter id="Icon_ionic-ios-pin" x="0" y="0" width="282.5" height="457.444" filterUnits="userSpaceOnUse">
      <feOffset dx="14" dy="3" input="SourceAlpha"/>
      <feGaussianBlur stdDeviation="4.5" result="blur"/>
      <feFlood flood-opacity="0.161"/>
      <feComposite operator="in" in2="blur"/>
      <feComposite in="SourceGraphic"/>
    </filter>
  </defs>
  <g id="beauty" transform="translate(-32 -22.5)">
    <g transform="matrix(1, 0, 0, 1, 32, 22.5)" filter="url(#Icon_ionic-ios-pin)">
      <path id="Icon_ionic-ios-pin-2" data-name="Icon ionic-ios-pin" d="M156.875,3.375c-82.26,0-128,61.98-128,138.342,0,107.611,128,292.1,128,292.1s127-184.491,127-292.1C283.875,65.355,239.135,3.375,156.875,3.375Z" transform="translate(-28.88 7.13)" fill="#bd7fcc"/>
    </g>
    <path id="Icon_map-beauty-salon" data-name="Icon map-beauty-salon" d="M106.049,20.608H81.643c-4.41.014-4.245,6.587,0,6.548h24.407v3.36H81.643c-4.386-.039-4.224,6.531,0,6.548h24.407V40.5H81.643c-4.386,0-4.224,6.566,0,6.548h24.407V50.32H81.643c-4.294.032-4.224,6.6,0,6.626h24.407v3.279H81.643c-4.294-.014-4.312,6.548,0,6.548h24.407v3.272H81.643c-4.294.014-4.312,6.584,0,6.552h24.407v3.353H81.643c-4.294-.039-4.312,6.524,0,6.548h24.407v3.265H81.643c-4.294,0-4.224,6.573,0,6.552h24.407v63.76c.014,9.716,14.772,9.54,14.814,0V10.867C120.821,6.429,117.176.818,111.179.8H81.643c-4.41,0-4.245,6.577,0,6.548l24.407.081V10.7H81.643c-4.4-.021-4.238,6.548,0,6.552h24.407v3.36ZM79.964,133.648c-.014-11.341-11.77-23.539-25.815-15.639V74.631L45.066,3.09A2.669,2.669,0,0,0,42.194.72c-1.113.032-3.343.478-3.585,2.37L29.571,74.631v43.378c-14.045-7.9-25.421,4.375-25.425,15.551a17.81,17.81,0,0,0,18.016,18.086C32.6,151.671,40.1,142.517,40.1,133.56V88.5h3.511v45.06a17.73,17.73,0,0,0,16.4,17.921c-.144,5.5,1.65,13.343,5.028,16.454,3.961,3.652,8.676-1.018,6.742-4.821-1.868-3.539-3.7-5.636-2.212-13.364a17.653,17.653,0,0,0,10.393-16.1Zm-57.4,8.922a8.928,8.928,0,1,1,8.866-8.922,8.927,8.927,0,0,1-8.866,8.922Zm30.095-8.922a8.868,8.868,0,1,1,8.869,8.922,8.964,8.964,0,0,1-8.869-8.922Z" transform="translate(93.247 79.244)" fill="#fff"/>
  </g>
</svg>
