<svg xmlns="http://www.w3.org/2000/svg" xmlns:xlink="http://www.w3.org/1999/xlink" width="282.5" height="457.445" viewBox="0 0 282.5 457.445">
  <defs>
    <filter id="books" x="0" y="0" width="282.5" height="457.445" filterUnits="userSpaceOnUse">
      <feOffset dx="14" dy="3" input="SourceAlpha"/>
      <feGaussianBlur stdDeviation="4.5" result="blur"/>
      <feFlood flood-opacity="0.161"/>
      <feComposite operator="in" in2="blur"/>
      <feComposite in="SourceGraphic"/>
    </filter>
  </defs>
  <g transform="matrix(1, 0, 0, 1, 0, 0)" filter="url(#books)">
    <path id="books-2" data-name="books" d="M376,316.444h0c-.08-.116-8.176-11.809-20-30.507-10.949-17.315-27.47-44.415-44-75.189-18.579-34.589-33.383-66.675-44-95.366A386.766,386.766,0,0,1,253.5,67.79c-1.783-7.818-3.15-15.366-4.062-22.433A165.3,165.3,0,0,1,248,24.342a168.383,168.383,0,0,1,8.432-53.831,129.824,129.824,0,0,1,24.72-43.976A113.406,113.406,0,0,1,321.3-103.123C337.637-110.341,356.042-114,376-114s38.3,3.66,54.547,10.878a111.875,111.875,0,0,1,39.8,29.658,129.627,129.627,0,0,1,24.377,43.976A171.03,171.03,0,0,1,503,24.342a166.57,166.57,0,0,1-1.426,21.014c-.905,7.068-2.261,14.616-4.031,22.433a389.034,389.034,0,0,1-14.387,47.592c-10.534,28.691-25.222,60.777-43.656,95.366-16.4,30.773-32.793,57.874-43.656,75.189C384.136,304.6,376.081,316.327,376,316.443Zm57.142-229a5.386,5.386,0,0,0,1.548.227,5.463,5.463,0,0,0,.965-.086,5.429,5.429,0,0,1-.949.083A5.531,5.531,0,0,1,433.142,87.448ZM342.056-43.1a5.455,5.455,0,0,0-5.449,5.449V82.226a5.455,5.455,0,0,0,5.449,5.449H374.75a5.455,5.455,0,0,0,5.449-5.449V-37.654A5.455,5.455,0,0,0,374.75-43.1Zm-54.49,0a5.455,5.455,0,0,0-5.45,5.449V82.226a5.455,5.455,0,0,0,5.45,5.449H320.26a5.455,5.455,0,0,0,5.449-5.449V-37.654A5.455,5.455,0,0,0,320.26-43.1ZM437.247,87.039l-.1.053a5.472,5.472,0,0,1-.73.3A5.394,5.394,0,0,0,437.247,87.039ZM434.69,76.776a5.45,5.45,0,0,1,2.557,10.262l29.092-14.658a5.456,5.456,0,0,0,2.415-7.318L419.716-32.263a5.433,5.433,0,0,0-4.883-2.994,5.364,5.364,0,0,0-2.435.579L383.2-19.966a5.457,5.457,0,0,0-2.414,7.319l48.978,97.207a5.4,5.4,0,0,1-.524-2.333A5.456,5.456,0,0,1,434.69,76.776Zm-4.926,7.784h0a5.47,5.47,0,0,0,.48.815,5.4,5.4,0,0,1-.42-.7ZM369.3-10.408h-21.8v-10.9h21.8v10.9Zm-54.491,0h-21.8v-10.9h21.8v10.9Z" transform="translate(-248 124.5)" fill="#8b5a28"/>
  </g>
</svg>
