<svg xmlns="http://www.w3.org/2000/svg" xmlns:xlink="http://www.w3.org/1999/xlink" width="282.5" height="457.444" viewBox="0 0 282.5 457.444">
  <defs>
    <filter id="Icon_ionic-ios-pin" x="0" y="0" width="282.5" height="457.444" filterUnits="userSpaceOnUse">
      <feOffset dx="14" dy="3" input="SourceAlpha"/>
      <feGaussianBlur stdDeviation="4.5" result="blur"/>
      <feFlood flood-opacity="0.161"/>
      <feComposite operator="in" in2="blur"/>
      <feComposite in="SourceGraphic"/>
    </filter>
  </defs>
  <g id="city" transform="translate(-32 -22.5)">
    <g transform="matrix(1, 0, 0, 1, 32, 22.5)" filter="url(#Icon_ionic-ios-pin)">
      <path id="Icon_ionic-ios-pin-2" data-name="Icon ionic-ios-pin" d="M156.875,3.375c-82.26,0-128,61.98-128,138.342,0,107.611,128,292.1,128,292.1s127-184.491,127-292.1C283.875,65.355,239.135,3.375,156.875,3.375Z" transform="translate(-28.88 7.13)" fill="#477bd4"/>
    </g>
    <path id="Icon_map-city-hall" data-name="Icon map-city-hall" d="M11.215,83H25v88.613H45.687V95.662H66.373v75.954H87.054V95.662h20.689v75.954h20.685V83h13.782a6.632,6.632,0,0,0,6.9-6.329,6.156,6.156,0,0,0-2.876-5.119l.012-.012-.1-.059-.178-.107L80.159,37.32V27.343c12.153,5.586,22.157-4.035,37.917,1.749V7.053C102.308,1.27,92.308,10.883,80.159,5.3V3.885a3.456,3.456,0,0,0-6.887,0V37.32L7.465,71.369l-.178.107-.1.067v.012a6.169,6.169,0,0,0-2.864,5.119A6.625,6.625,0,0,0,11.215,83Zm6.891,94.946L4.32,190.6H149.115L135.32,177.949Z" transform="translate(82.459 57.618)" fill="#fff"/>
  </g>
</svg>
