<svg xmlns="http://www.w3.org/2000/svg" xmlns:xlink="http://www.w3.org/1999/xlink" width="282.501" height="457.445" viewBox="0 0 282.501 457.445">
  <defs>
    <filter id="city" x="0" y="0" width="282.501" height="457.445" filterUnits="userSpaceOnUse">
      <feOffset dx="14" dy="3" input="SourceAlpha"/>
      <feGaussianBlur stdDeviation="4.5" result="blur"/>
      <feFlood flood-opacity="0.161"/>
      <feComposite operator="in" in2="blur"/>
      <feComposite in="SourceGraphic"/>
    </filter>
  </defs>
  <g transform="matrix(1, 0, 0, 1, 0, 0)" filter="url(#city)">
    <path id="city-2" data-name="city" d="M31,316.444h0c-.08-.116-8.176-11.809-20-30.507C.051,268.621-16.47,241.521-33,210.748c-18.579-34.589-33.383-66.675-44-95.366A386.764,386.764,0,0,1-91.5,67.79c-1.783-7.818-3.15-15.366-4.062-22.433A165.3,165.3,0,0,1-97,24.342a168.382,168.382,0,0,1,8.432-53.831,129.826,129.826,0,0,1,24.72-43.976A113.407,113.407,0,0,1-23.7-103.123C-7.363-110.341,11.042-114,31-114s38.3,3.66,54.548,10.878a111.875,111.875,0,0,1,39.8,29.658,129.626,129.626,0,0,1,24.377,43.976A171.029,171.029,0,0,1,158,24.342a166.567,166.567,0,0,1-1.426,21.014c-.905,7.068-2.261,14.616-4.031,22.433a389.046,389.046,0,0,1-14.387,47.592c-10.534,28.691-25.222,60.777-43.657,95.366-16.4,30.775-32.793,57.874-43.657,75.189C39.137,304.6,31.08,316.327,31,316.443ZM-28.435,88.567h0l-13.786,12.655H102.574L88.78,88.567H-28.435ZM61.2,6.28V82.234H81.888V-6.379H95.671a6.64,6.64,0,0,0,6.9-6.329,6.186,6.186,0,0,0-2.876-5.119l.012-.012-.1-.059-.178-.107L33.619-52.062v-9.976a19.888,19.888,0,0,0,8.6,1.817,52.758,52.758,0,0,0,8.561-.944l.33-.054a58.67,58.67,0,0,1,9.576-1A30.974,30.974,0,0,1,71.536-60.29V-82.328a31.007,31.007,0,0,0-10.86-1.929,58.762,58.762,0,0,0-9.573,1l-.334.055a52.813,52.813,0,0,1-8.554.941,19.887,19.887,0,0,1-8.6-1.816V-85.5a3.318,3.318,0,0,0-3.446-3.164A3.315,3.315,0,0,0,26.731-85.5v33.435L-39.075-18.013l-.178.107-.1.068v.012a6.192,6.192,0,0,0-2.864,5.119,6.023,6.023,0,0,0,1.808,4.276,7.209,7.209,0,0,0,5.083,2.053h13.786V82.234H-.853V6.28H19.832V82.234H40.514V6.28H61.2Z" transform="translate(97 124.5)" fill="#477bd4"/>
  </g>
</svg>
