<svg xmlns="http://www.w3.org/2000/svg" xmlns:xlink="http://www.w3.org/1999/xlink" width="282.501" height="457.445" viewBox="0 0 282.501 457.445">
  <defs>
    <filter id="cloths" x="0" y="0" width="282.501" height="457.445" filterUnits="userSpaceOnUse">
      <feOffset dx="14" dy="3" input="SourceAlpha"/>
      <feGaussianBlur stdDeviation="4.5" result="blur"/>
      <feFlood flood-opacity="0.161"/>
      <feComposite operator="in" in2="blur"/>
      <feComposite in="SourceGraphic"/>
    </filter>
  </defs>
  <g transform="matrix(1, 0, 0, 1, 0, 0)" filter="url(#cloths)">
    <path id="cloths-2" data-name="cloths" d="M31,316.444h0c-.08-.116-8.176-11.809-20-30.507C.051,268.621-16.47,241.521-33,210.748c-18.579-34.589-33.383-66.675-44-95.366A386.764,386.764,0,0,1-91.5,67.79c-1.783-7.818-3.15-15.366-4.062-22.433A165.3,165.3,0,0,1-97,24.342a168.382,168.382,0,0,1,8.432-53.831,129.826,129.826,0,0,1,24.72-43.976A113.407,113.407,0,0,1-23.7-103.123C-7.363-110.341,11.042-114,31-114s38.3,3.66,54.548,10.878a111.875,111.875,0,0,1,39.8,29.658,129.626,129.626,0,0,1,24.377,43.976A171.029,171.029,0,0,1,158,24.342a166.567,166.567,0,0,1-1.426,21.014c-.905,7.068-2.261,14.616-4.031,22.433a389.046,389.046,0,0,1-14.387,47.592c-10.534,28.691-25.222,60.777-43.657,95.366-16.4,30.775-32.793,57.874-43.657,75.189C39.137,304.6,31.08,316.327,31,316.443ZM-15.177,10.778V83.256a3.65,3.65,0,0,0,3.815,3.814H68.745a3.65,3.65,0,0,0,3.815-3.814V10.778l16.479,4.044a10.613,10.613,0,0,0,1.866.191,4.6,4.6,0,0,0,3.7-1.831l20.561-30.593a4.055,4.055,0,0,0,.725-3.28,4.13,4.13,0,0,0-2.137-2.633l-41.2-19.3H53.487a3.65,3.65,0,0,0-3.815,3.814c0,3.574-2.374,7.01-6.685,9.675a25.442,25.442,0,0,1-12.579,3.752A24.538,24.538,0,0,1,18.02-29.151c-4.188-2.66-6.495-6.091-6.495-9.66a3.649,3.649,0,0,0-3.814-3.814H-11.362L-52.979-22.943a3.682,3.682,0,0,0-2.1,2.442,3.848,3.848,0,0,0,.534,3.2L-34.135,13.22a3.588,3.588,0,0,0,3.025,1.82,3.821,3.821,0,0,0,1.133-.18l14.8-4.081Z" transform="translate(97 124.5)" fill="#47d4d4"/>
  </g>
</svg>
