<svg xmlns="http://www.w3.org/2000/svg" xmlns:xlink="http://www.w3.org/1999/xlink" width="282.501" height="457.445" viewBox="0 0 282.501 457.445">
  <defs>
    <filter id="fast_food" x="0" y="0" width="282.501" height="457.445" filterUnits="userSpaceOnUse">
      <feOffset dx="14" dy="3" input="SourceAlpha"/>
      <feGaussianBlur stdDeviation="4.5" result="blur"/>
      <feFlood flood-opacity="0.161"/>
      <feComposite operator="in" in2="blur"/>
      <feComposite in="SourceGraphic"/>
    </filter>
  </defs>
  <g transform="matrix(1, 0, 0, 1, 0, 0)" filter="url(#fast_food)">
    <path id="fast_food-2" data-name="fast_food" d="M31,316.444h0c-.08-.116-8.176-11.809-20-30.507C.051,268.621-16.47,241.521-33,210.748c-18.579-34.589-33.383-66.675-44-95.366A386.764,386.764,0,0,1-91.5,67.79c-1.783-7.818-3.15-15.366-4.062-22.433A165.3,165.3,0,0,1-97,24.342a168.382,168.382,0,0,1,8.432-53.831,129.826,129.826,0,0,1,24.72-43.976A113.407,113.407,0,0,1-23.7-103.123C-7.363-110.341,11.042-114,31-114s38.3,3.66,54.548,10.878a111.875,111.875,0,0,1,39.8,29.658,129.626,129.626,0,0,1,24.377,43.976A171.029,171.029,0,0,1,158,24.342a166.567,166.567,0,0,1-1.426,21.014c-.905,7.068-2.261,14.616-4.031,22.433a389.046,389.046,0,0,1-14.387,47.592c-10.534,28.691-25.222,60.777-43.657,95.366-16.4,30.775-32.793,57.874-43.657,75.189C39.137,304.6,31.08,316.327,31,316.443ZM-46.291,72.917a5.527,5.527,0,0,0-5.521,5.521v5.521a22.108,22.108,0,0,0,22.083,22.083H91.729a22.108,22.108,0,0,0,22.083-22.083V78.438a5.527,5.527,0,0,0-5.521-5.521Zm5.521-44.168A16.581,16.581,0,0,0-57.334,45.312,16.581,16.581,0,0,0-40.771,61.875H102.771a16.563,16.563,0,1,0,0-33.125ZM31-48.541c-33.622.032-65.069,15.758-80.114,40.063A18.237,18.237,0,0,0-49.52,9.988c2.731,4.906,7.258,7.72,12.42,7.72H99.1c5.159,0,9.684-2.812,12.414-7.714a18.244,18.244,0,0,0-.4-18.469C96.07-32.782,64.624-48.509,31-48.541ZM75.167-9.9a5.528,5.528,0,0,1-5.521-5.522,5.527,5.527,0,0,1,5.521-5.521,5.527,5.527,0,0,1,5.521,5.521A5.527,5.527,0,0,1,75.167-9.9Zm-88.334,0a5.527,5.527,0,0,1-5.521-5.522,5.527,5.527,0,0,1,5.521-5.521,5.527,5.527,0,0,1,5.522,5.521A5.528,5.528,0,0,1-13.167-9.9ZM31-20.938a5.527,5.527,0,0,1-5.521-5.521A5.527,5.527,0,0,1,31-31.979a5.527,5.527,0,0,1,5.521,5.521A5.527,5.527,0,0,1,31-20.938Z" transform="translate(97 124.5)" fill="#3e46b2"/>
  </g>
</svg>
