<svg xmlns="http://www.w3.org/2000/svg" xmlns:xlink="http://www.w3.org/1999/xlink" width="282.5" height="457.444" viewBox="0 0 282.5 457.444">
  <defs>
    <filter id="Icon_ionic-ios-pin" x="0" y="0" width="282.5" height="457.444" filterUnits="userSpaceOnUse">
      <feOffset dx="14" dy="3" input="SourceAlpha"/>
      <feGaussianBlur stdDeviation="4.5" result="blur"/>
      <feFlood flood-opacity="0.161"/>
      <feComposite operator="in" in2="blur"/>
      <feComposite in="SourceGraphic"/>
    </filter>
  </defs>
  <g id="florist" transform="translate(-32 -22.5)">
    <g transform="matrix(1, 0, 0, 1, 32, 22.5)" filter="url(#Icon_ionic-ios-pin)">
      <path id="Icon_ionic-ios-pin-2" data-name="Icon ionic-ios-pin" d="M156.875,3.375c-82.26,0-128,61.98-128,138.342,0,107.611,128,292.1,128,292.1s127-184.491,127-292.1C283.875,65.355,239.135,3.375,156.875,3.375Z" transform="translate(-28.88 7.13)" fill="#5d811d"/>
    </g>
    <path id="Icon_material-local-florist" data-name="Icon material-local-florist" d="M66.293,145.683A61.8,61.8,0,0,0,128.085,83.89,61.8,61.8,0,0,0,66.293,145.683ZM22.351,65.009A17.183,17.183,0,0,0,49.265,79.153l-.137,1.3a17.165,17.165,0,0,0,34.329,0l-.137-1.3a16.92,16.92,0,0,0,9.749,3.021,17.125,17.125,0,0,0,7.346-32.613,17.141,17.141,0,1,0-17.1-29.592l.137-1.3a17.165,17.165,0,1,0-34.329,0l.137,1.3a16.92,16.92,0,0,0-9.749-3.021,17.125,17.125,0,0,0-7.346,32.613A17.1,17.1,0,0,0,22.351,65.009ZM66.293,32.4A17.165,17.165,0,1,1,49.128,49.561,17.171,17.171,0,0,1,66.293,32.4ZM4.5,83.89a61.8,61.8,0,0,0,61.793,61.793A61.8,61.8,0,0,0,4.5,83.89Z" transform="translate(94.2 97.29)" fill="#fff"/>
  </g>
</svg>
