<svg xmlns="http://www.w3.org/2000/svg" xmlns:xlink="http://www.w3.org/1999/xlink" width="282.501" height="457.445" viewBox="0 0 282.501 457.445">
  <defs>
    <filter id="health_institution" x="0" y="0" width="282.501" height="457.445" filterUnits="userSpaceOnUse">
      <feOffset dx="14" dy="3" input="SourceAlpha"/>
      <feGaussianBlur stdDeviation="4.5" result="blur"/>
      <feFlood flood-opacity="0.161"/>
      <feComposite operator="in" in2="blur"/>
      <feComposite in="SourceGraphic"/>
    </filter>
  </defs>
  <g transform="matrix(1, 0, 0, 1, 0, 0)" filter="url(#health_institution)">
    <path id="health_institution-2" data-name="health_institution" d="M31,316.444h0c-.08-.116-8.176-11.809-20-30.507C.051,268.621-16.47,241.521-33,210.748c-18.579-34.589-33.383-66.675-44-95.366A386.764,386.764,0,0,1-91.5,67.79c-1.783-7.818-3.15-15.366-4.062-22.433A165.3,165.3,0,0,1-97,24.342a168.382,168.382,0,0,1,8.432-53.831,129.826,129.826,0,0,1,24.72-43.976A113.407,113.407,0,0,1-23.7-103.123C-7.363-110.341,11.042-114,31-114s38.3,3.66,54.548,10.878a111.875,111.875,0,0,1,39.8,29.658,129.626,129.626,0,0,1,24.377,43.976A171.029,171.029,0,0,1,158,24.342a166.567,166.567,0,0,1-1.426,21.014c-.905,7.068-2.261,14.616-4.031,22.433a389.046,389.046,0,0,1-14.387,47.592c-10.534,28.691-25.222,60.777-43.657,95.366-16.4,30.775-32.793,57.874-43.657,75.189C39.137,304.6,31.08,316.327,31,316.443ZM2.574,50.055H59.426A2.846,2.846,0,0,1,62.268,52.9V98.38a2.846,2.846,0,0,0,2.843,2.842H90.694a2.846,2.846,0,0,0,2.843-2.842V-32.379a2.846,2.846,0,0,0-2.843-2.843H65.111a2.846,2.846,0,0,0-2.843,2.843v39.8a2.845,2.845,0,0,1-2.842,2.842H2.574A2.845,2.845,0,0,1-.268,7.417v-39.8a2.846,2.846,0,0,0-2.843-2.843H-28.695a2.846,2.846,0,0,0-2.842,2.843V98.38a2.845,2.845,0,0,0,2.842,2.842H-3.111A2.846,2.846,0,0,0-.268,98.38V52.9A2.846,2.846,0,0,1,2.574,50.055Z" transform="translate(97 124.5)" fill="#d44755"/>
  </g>
</svg>
