<svg xmlns="http://www.w3.org/2000/svg" xmlns:xlink="http://www.w3.org/1999/xlink" width="282.5" height="457.445" viewBox="0 0 282.5 457.445">
  <defs>
    <filter id="market" x="0" y="0" width="282.5" height="457.445" filterUnits="userSpaceOnUse">
      <feOffset dx="14" dy="3" input="SourceAlpha"/>
      <feGaussianBlur stdDeviation="4.5" result="blur"/>
      <feFlood flood-opacity="0.161"/>
      <feComposite operator="in" in2="blur"/>
      <feComposite in="SourceGraphic"/>
    </filter>
  </defs>
  <g transform="matrix(1, 0, 0, 1, 0, 0)" filter="url(#market)">
    <path id="market-2" data-name="market" d="M376,316.444h0c-.08-.116-8.176-11.809-20-30.507-10.949-17.315-27.47-44.415-44-75.189-18.579-34.589-33.383-66.675-44-95.366A386.766,386.766,0,0,1,253.5,67.79c-1.783-7.818-3.15-15.366-4.062-22.433A165.3,165.3,0,0,1,248,24.342a168.383,168.383,0,0,1,8.432-53.831,129.824,129.824,0,0,1,24.72-43.976A113.406,113.406,0,0,1,321.3-103.123C337.637-110.341,356.042-114,376-114s38.3,3.66,54.547,10.878a111.875,111.875,0,0,1,39.8,29.658,129.627,129.627,0,0,1,24.377,43.976A171.03,171.03,0,0,1,503,24.342a166.57,166.57,0,0,1-1.426,21.014c-.905,7.068-2.261,14.616-4.031,22.433a389.034,389.034,0,0,1-14.387,47.592c-10.534,28.691-25.222,60.777-43.656,95.366-16.4,30.773-32.793,57.874-43.656,75.189C384.136,304.6,376.081,316.327,376,316.443ZM442.444,73.623a13.8,13.8,0,1,0,13.8,13.8A13.816,13.816,0,0,0,442.444,73.623Zm-100.05,0a13.8,13.8,0,1,0,13.8,13.8A13.815,13.815,0,0,0,342.393,73.623Zm-44.85-110.4a6.908,6.908,0,0,0-6.9,6.9,6.908,6.908,0,0,0,6.9,6.9h18.1L334.065,47.9,326.82,59.65a6.9,6.9,0,0,0,5.873,10.522h120.1a6.9,6.9,0,0,0,0-13.8H345.054l2.3-3.733a6.931,6.931,0,0,0,.8-5.358l-2.245-8.645,99.992-5.2a7.348,7.348,0,0,0,6.889-7.256V-19.527a6.908,6.908,0,0,0-6.9-6.9H329l-1.349-5.186a6.9,6.9,0,0,0-6.677-5.164Z" transform="translate(-248 124.5)" fill="#7f47d4"/>
  </g>
</svg>
