<svg xmlns="http://www.w3.org/2000/svg" xmlns:xlink="http://www.w3.org/1999/xlink" width="282.5" height="457.444" viewBox="0 0 282.5 457.444">
  <defs>
    <filter id="Icon_ionic-ios-pin" x="0" y="0" width="282.5" height="457.444" filterUnits="userSpaceOnUse">
      <feOffset dx="14" dy="3" input="SourceAlpha"/>
      <feGaussianBlur stdDeviation="4.5" result="blur"/>
      <feFlood flood-opacity="0.161"/>
      <feComposite operator="in" in2="blur"/>
      <feComposite in="SourceGraphic"/>
    </filter>
  </defs>
  <g id="nurse" transform="translate(-32 -22.5)">
    <g transform="matrix(1, 0, 0, 1, 32, 22.5)" filter="url(#Icon_ionic-ios-pin)">
      <path id="Icon_ionic-ios-pin-2" data-name="Icon ionic-ios-pin" d="M156.875,3.375c-82.26,0-128,61.98-128,138.342,0,107.611,128,292.1,128,292.1s127-184.491,127-292.1C283.875,65.355,239.135,3.375,156.875,3.375Z" transform="translate(-28.88 7.13)" fill="#d4cb47"/>
    </g>
    <path id="Icon_awesome-user-nurse" data-name="Icon awesome-user-nurse" d="M17.881,89.125H43.368a38.956,38.956,0,0,0,51.9,0h25.487a4.951,4.951,0,0,0,4.419-7.173c-4.713-9.237-9.68-19.258-13.044-29.566a71.818,71.818,0,0,1-3.2-22.306V14.854L69.319,0,29.708,14.854V30.08a71.722,71.722,0,0,1-3.2,22.306c-3.37,10.308-8.337,20.338-13.05,29.566a4.951,4.951,0,0,0,4.419,7.173Zm39.06-66.946a1.547,1.547,0,0,1,1.547-1.547h6.706V13.926a1.547,1.547,0,0,1,1.547-1.547H71.9a1.547,1.547,0,0,1,1.547,1.547v6.706H80.15A1.547,1.547,0,0,1,81.7,22.179v5.156a1.547,1.547,0,0,1-1.547,1.547H73.444v6.706A1.547,1.547,0,0,1,71.9,37.135H66.742a1.547,1.547,0,0,1-1.547-1.547V28.882H58.488a1.547,1.547,0,0,1-1.547-1.547ZM44.562,49.514H94.076v9.9a24.757,24.757,0,0,1-49.514,0ZM98.845,99.028l-29.526,29.52L39.794,99.028A41.5,41.5,0,0,0,0,140.43a18.014,18.014,0,0,0,18.014,18.014H120.625a18.014,18.014,0,0,0,18.014-18.014A41.5,41.5,0,0,0,98.845,99.028Z" transform="translate(90.431 89.778)" fill="#fff"/>
  </g>
</svg>
