<svg xmlns="http://www.w3.org/2000/svg" xmlns:xlink="http://www.w3.org/1999/xlink" width="282.501" height="457.445" viewBox="0 0 282.501 457.445">
  <defs>
    <filter id="nurse" x="0" y="0" width="282.501" height="457.445" filterUnits="userSpaceOnUse">
      <feOffset dx="14" dy="3" input="SourceAlpha"/>
      <feGaussianBlur stdDeviation="4.5" result="blur"/>
      <feFlood flood-opacity="0.161"/>
      <feComposite operator="in" in2="blur"/>
      <feComposite in="SourceGraphic"/>
    </filter>
  </defs>
  <g transform="matrix(1, 0, 0, 1, 0, 0)" filter="url(#nurse)">
    <path id="nurse-2" data-name="nurse" d="M31,316.444h0c-.08-.116-8.176-11.809-20-30.507C.051,268.621-16.47,241.521-33,210.748c-18.579-34.589-33.383-66.675-44-95.366A386.764,386.764,0,0,1-91.5,67.79c-1.783-7.818-3.15-15.366-4.062-22.433A165.3,165.3,0,0,1-97,24.342a168.382,168.382,0,0,1,8.432-53.831,129.826,129.826,0,0,1,24.72-43.976A113.407,113.407,0,0,1-23.7-103.123C-7.363-110.341,11.042-114,31-114s38.3,3.66,54.548,10.878a111.875,111.875,0,0,1,39.8,29.658,129.626,129.626,0,0,1,24.377,43.976A171.029,171.029,0,0,1,158,24.342a166.567,166.567,0,0,1-1.426,21.014c-.905,7.068-2.261,14.616-4.031,22.433a389.046,389.046,0,0,1-14.387,47.592c-10.534,28.691-25.222,60.777-43.657,95.366-16.4,30.775-32.793,57.874-43.657,75.189C39.137,304.6,31.08,316.327,31,316.443ZM1.224,41.8h0a41.431,41.431,0,0,0-39.793,41.4,18.034,18.034,0,0,0,18.013,18.014H82.056a18.034,18.034,0,0,0,18.013-18.014,41.431,41.431,0,0,0-39.793-41.4L30.75,71.325,1.224,41.806ZM30.75-57.222h0L-8.861-42.367v15.225a71.031,71.031,0,0,1-3.2,22.306c-3.363,10.29-8.291,20.248-13.049,29.566a4.922,4.922,0,0,0,.209,4.819,4.922,4.922,0,0,0,4.21,2.354H4.8a39.508,39.508,0,0,0,25.952,9.9A39.508,39.508,0,0,0,56.7,31.9H82.189a4.952,4.952,0,0,0,4.419-7.174C81.84,15.385,76.906,5.4,73.564-4.837a71.106,71.106,0,0,1-3.2-22.306V-42.367L30.75-57.222Zm0,84.173a24.6,24.6,0,0,1-9.637-1.946A24.676,24.676,0,0,1,13.244,19.7,24.68,24.68,0,0,1,5.993,2.194v-9.9H55.507v9.9A24.68,24.68,0,0,1,48.256,19.7a24.672,24.672,0,0,1-7.869,5.306A24.6,24.6,0,0,1,30.75,26.951Zm2.578-47.039H28.172a1.549,1.549,0,0,1-1.547-1.547V-28.34H19.919a1.549,1.549,0,0,1-1.547-1.547v-5.156a1.549,1.549,0,0,1,1.547-1.547h6.706V-43.3a1.549,1.549,0,0,1,1.547-1.547h5.156A1.549,1.549,0,0,1,34.875-43.3v6.706h6.706a1.549,1.549,0,0,1,1.548,1.547v5.156a1.549,1.549,0,0,1-1.548,1.547H34.875v6.706A1.549,1.549,0,0,1,33.328-20.087Z" transform="translate(97 124.5)" fill="#d4cb47"/>
  </g>
</svg>
