<svg xmlns="http://www.w3.org/2000/svg" xmlns:xlink="http://www.w3.org/1999/xlink" width="282.5" height="457.444" viewBox="0 0 282.5 457.444">
  <defs>
    <filter id="Icon_ionic-ios-pin" x="0" y="0" width="282.5" height="457.444" filterUnits="userSpaceOnUse">
      <feOffset dx="14" dy="3" input="SourceAlpha"/>
      <feGaussianBlur stdDeviation="4.5" result="blur"/>
      <feFlood flood-opacity="0.161"/>
      <feComposite operator="in" in2="blur"/>
      <feComposite in="SourceGraphic"/>
    </filter>
  </defs>
  <g id="optician" transform="translate(-32 -22.5)">
    <g transform="matrix(1, 0, 0, 1, 32, 22.5)" filter="url(#Icon_ionic-ios-pin)">
      <path id="Icon_ionic-ios-pin-2" data-name="Icon ionic-ios-pin" d="M156.875,3.375c-82.26,0-128,61.98-128,138.342,0,107.611,128,292.1,128,292.1s127-184.491,127-292.1C283.875,65.355,239.135,3.375,156.875,3.375Z" transform="translate(-28.88 7.13)" fill="#1eac81"/>
    </g>
    <path id="Icon_awesome-glasses" data-name="Icon awesome-glasses" d="M184.763,82.185l-14.6-58.48a28.3,28.3,0,0,0-36.428-20l-4.908,1.635a5.146,5.146,0,0,0-3.257,6.514l1.628,4.885A5.148,5.148,0,0,0,133.715,20l4.242-1.413a13.763,13.763,0,0,1,10.672.557,12.752,12.752,0,0,1,6.556,8.31l12.378,49.5a89.066,89.066,0,0,0-26.133-4.01,84.415,84.415,0,0,0-36.962,8.606H80.915a84.335,84.335,0,0,0-36.966-8.609,89.071,89.071,0,0,0-26.136,4.01L30.191,27.445a12.742,12.742,0,0,1,6.559-8.306,13.755,13.755,0,0,1,10.669-.557l4.239,1.413a5.148,5.148,0,0,0,6.511-3.257L59.8,11.852a5.146,5.146,0,0,0-3.257-6.514L51.631,3.7A28.3,28.3,0,0,0,15.2,23.7L.611,82.185A20.667,20.667,0,0,0,0,87.17v22.609a36.867,36.867,0,0,0,37.075,36.653H49.021a36.905,36.905,0,0,0,36.972-33.911l.943-12.432H98.442l.943,12.432a36.9,36.9,0,0,0,36.969,33.911H148.3a36.866,36.866,0,0,0,37.075-36.65V87.174A20.673,20.673,0,0,0,184.763,82.185ZM65.454,110.963a16.378,16.378,0,0,1-16.433,14.872H37.075A16.29,16.29,0,0,1,20.6,109.779V97.7a69.864,69.864,0,0,1,23.359-4.158A63.144,63.144,0,0,1,66.461,97.7l-1.007,13.266Zm99.324-1.181A16.287,16.287,0,0,1,148.3,125.835H136.354a16.373,16.373,0,0,1-16.433-14.872L118.913,97.7a63.166,63.166,0,0,1,22.512-4.158A69.859,69.859,0,0,1,164.774,97.7v12.082Z" transform="translate(71.05 96.54)" fill="#fff"/>
  </g>
</svg>
