<svg xmlns="http://www.w3.org/2000/svg" xmlns:xlink="http://www.w3.org/1999/xlink" width="282.5" height="457.444" viewBox="0 0 282.5 457.444">
  <defs>
    <filter id="Icon_ionic-ios-pin" x="0" y="0" width="282.5" height="457.444" filterUnits="userSpaceOnUse">
      <feOffset dx="14" dy="3" input="SourceAlpha"/>
      <feGaussianBlur stdDeviation="4.5" result="blur"/>
      <feFlood flood-opacity="0.161"/>
      <feComposite operator="in" in2="blur"/>
      <feComposite in="SourceGraphic"/>
    </filter>
  </defs>
  <g id="post" transform="translate(-32 -22.5)">
    <g transform="matrix(1, 0, 0, 1, 32, 22.5)" filter="url(#Icon_ionic-ios-pin)">
      <path id="Icon_ionic-ios-pin-2" data-name="Icon ionic-ios-pin" d="M156.875,3.375c-82.26,0-128,61.98-128,138.342,0,107.611,128,292.1,128,292.1s127-184.491,127-292.1C283.875,65.355,239.135,3.375,156.875,3.375Z" transform="translate(-28.88 7.13)" fill="#23bfba"/>
    </g>
    <path id="Icon_map-post-office" data-name="Icon map-post-office" d="M11.146,5.76c-11.146,0-5.571,2.952,0,7.481l83.6,63.627,83.6-63.43c5.579-4.529,11.146-7.678,0-7.678ZM0,20.715v93.714c0,5.514,5.639,12.6,10.1,12.6H179.39c4.464,0,10.1-7.091,10.1-12.6V20.715L94.745,93Z" transform="translate(64.726 115.522)" fill="#fff"/>
  </g>
</svg>
