<svg xmlns="http://www.w3.org/2000/svg" xmlns:xlink="http://www.w3.org/1999/xlink" width="282.5" height="457.445" viewBox="0 0 282.5 457.445">
  <defs>
    <filter id="restaurant" x="0" y="0" width="282.5" height="457.445" filterUnits="userSpaceOnUse">
      <feOffset dx="14" dy="3" input="SourceAlpha"/>
      <feGaussianBlur stdDeviation="4.5" result="blur"/>
      <feFlood flood-opacity="0.161"/>
      <feComposite operator="in" in2="blur"/>
      <feComposite in="SourceGraphic"/>
    </filter>
  </defs>
  <g transform="matrix(1, 0, 0, 1, 0, 0)" filter="url(#restaurant)">
    <path id="restaurant-2" data-name="restaurant" d="M376,316.444h0c-.08-.116-8.176-11.809-20-30.507-10.949-17.315-27.47-44.415-44-75.189-18.579-34.589-33.383-66.675-44-95.366A386.766,386.766,0,0,1,253.5,67.79c-1.783-7.818-3.15-15.366-4.062-22.433A165.3,165.3,0,0,1,248,24.342a168.383,168.383,0,0,1,8.432-53.831,129.824,129.824,0,0,1,24.72-43.976A113.406,113.406,0,0,1,321.3-103.123C337.637-110.341,356.042-114,376-114s38.3,3.66,54.547,10.878a111.875,111.875,0,0,1,39.8,29.658,129.627,129.627,0,0,1,24.377,43.976A171.03,171.03,0,0,1,503,24.342a166.57,166.57,0,0,1-1.426,21.014c-.905,7.068-2.261,14.616-4.031,22.433a389.034,389.034,0,0,1-14.387,47.592c-10.534,28.691-25.222,60.777-43.656,95.366-16.4,30.773-32.793,57.874-43.656,75.189C384.136,304.6,376.081,316.327,376,316.443ZM415.271-78c-8.147,0-16.916,4.411-16.916,14.1V30.076h7.519V90.222c0,7.749,6.82,11.278,13.157,11.278s13.157-3.529,13.157-11.278V-63.9C432.187-73.588,423.418-78,415.271-78Zm-92.1-.941h0a3.954,3.954,0,0,0-2.582.91,3.414,3.414,0,0,0-1.173,2.684v54.4c0,8.041,7.8,13.019,15.036,13.019V90.222c0,7.749,5.846,11.278,11.277,11.278S357,97.971,357,90.222V-7.921a16.762,16.762,0,0,0,10.338-3.859c2.986-2.433,4.7-5.448,4.7-8.272V-75.315a3.5,3.5,0,0,0-3.74-3.541,3.508,3.508,0,0,0-3.779,3.42v41.606H357V-75.18a3.763,3.763,0,0,0-3.758-3.759,3.764,3.764,0,0,0-3.759,3.759v41.35h-7.519V-75.315a3.521,3.521,0,0,0-3.747-3.582,3.519,3.519,0,0,0-3.772,3.458v41.61h-7.518V-75.142a3.623,3.623,0,0,0-3.764-3.8Z" transform="translate(-248 124.5)" fill="#23bf5c"/>
  </g>
</svg>
