<svg xmlns="http://www.w3.org/2000/svg" xmlns:xlink="http://www.w3.org/1999/xlink" width="282.5" height="457.444" viewBox="0 0 282.5 457.444">
  <defs>
    <filter id="Icon_ionic-ios-pin" x="0" y="0" width="282.5" height="457.444" filterUnits="userSpaceOnUse">
      <feOffset dx="14" dy="3" input="SourceAlpha"/>
      <feGaussianBlur stdDeviation="4.5" result="blur"/>
      <feFlood flood-opacity="0.161"/>
      <feComposite operator="in" in2="blur"/>
      <feComposite in="SourceGraphic"/>
    </filter>
  </defs>
  <g id="restaurant" transform="translate(-32 -22.5)">
    <g transform="matrix(1, 0, 0, 1, 32, 22.5)" filter="url(#Icon_ionic-ios-pin)">
      <path id="Icon_ionic-ios-pin-2" data-name="Icon ionic-ios-pin" d="M156.875,3.375c-82.26,0-128,61.98-128,138.342,0,107.611,128,292.1,128,292.1s127-184.491,127-292.1C283.875,65.355,239.135,3.375,156.875,3.375Z" transform="translate(-28.88 7.13)" fill="#23bf5c"/>
    </g>
    <path id="Icon_map-restaurant" data-name="Icon map-restaurant" d="M52.31,4.224V45.83H44.791V4.48a3.759,3.759,0,1,0-7.518,0V45.83H29.755V4.345c0-4.838-7.518-4.673-7.518-.124V45.83H14.718V4.517c0-5.124-7.518-4.936-7.518-.2v54.4c0,7.845,7.518,13.018,15.037,13.018v98.147c0,15.037,22.555,15.037,22.555,0V71.738c7.518,0,15.037-6.248,15.037-12.131V4.345c0-4.793-7.518-4.609-7.518-.12ZM86.142,15.757v93.979H93.66v60.146c0,15.037,26.314,15.037,26.314,0V15.757C119.974-3.038,86.142-3.038,86.142,15.757Z" transform="translate(96.213 67.34)" fill="#fff"/>
  </g>
</svg>
