<svg xmlns="http://www.w3.org/2000/svg" xmlns:xlink="http://www.w3.org/1999/xlink" width="282.5" height="457.444" viewBox="0 0 282.5 457.444">
  <defs>
    <filter id="Icon_ionic-ios-pin" x="0" y="0" width="282.5" height="457.444" filterUnits="userSpaceOnUse">
      <feOffset dx="14" dy="3" input="SourceAlpha"/>
      <feGaussianBlur stdDeviation="4.5" result="blur"/>
      <feFlood flood-opacity="0.161"/>
      <feComposite operator="in" in2="blur"/>
      <feComposite in="SourceGraphic"/>
    </filter>
  </defs>
  <g id="tobacco" transform="translate(-32 -22.5)">
    <g transform="matrix(1, 0, 0, 1, 32, 22.5)" filter="url(#Icon_ionic-ios-pin)">
      <path id="Icon_ionic-ios-pin-2" data-name="Icon ionic-ios-pin" d="M156.875,3.375c-82.26,0-128,61.98-128,138.342,0,107.611,128,292.1,128,292.1s127-184.491,127-292.1C283.875,65.355,239.135,3.375,156.875,3.375Z" transform="translate(-28.88 7.13)" fill="#bf2363"/>
    </g>
    <path id="Icon_awesome-smoking" data-name="Icon awesome-smoking" d="M177.521,98.873H164.039a2.254,2.254,0,0,0-2.247,2.247v40.448a2.254,2.254,0,0,0,2.247,2.247h13.483a2.254,2.254,0,0,0,2.247-2.247V101.12A2.254,2.254,0,0,0,177.521,98.873ZM155.415,24.465a5.7,5.7,0,0,1-2.612-4.719V2.247A2.254,2.254,0,0,0,150.556,0H137.073a2.254,2.254,0,0,0-2.247,2.247v17.5a18.485,18.485,0,0,0,8.033,15.561,41.372,41.372,0,0,1,18.932,34.83v8.511a2.254,2.254,0,0,0,2.247,2.247h13.483a2.254,2.254,0,0,0,2.247-2.247V70.138A54.851,54.851,0,0,0,155.415,24.465ZM121.344,98.873H13.483A13.486,13.486,0,0,0,0,112.355v17.977a13.486,13.486,0,0,0,13.483,13.483H121.344a4.507,4.507,0,0,0,4.494-4.494V103.367A4.507,4.507,0,0,0,121.344,98.873Zm-8.988,31.459H62.919V112.355h49.436Zm24.634-90.558c-6.713-4.663-11.151-11.882-11.151-20.027V2.247A2.254,2.254,0,0,0,123.591,0H110.108a2.254,2.254,0,0,0-2.247,2.247V20.9c0,12.275,6.91,22.92,16.938,29.971a23.488,23.488,0,0,1,10.028,19.269v8.511a2.254,2.254,0,0,0,2.247,2.247h13.483a2.254,2.254,0,0,0,2.247-2.247V70.138a36.961,36.961,0,0,0-15.814-30.364Zm13.567,59.1H137.073a2.254,2.254,0,0,0-2.247,2.247v40.448a2.254,2.254,0,0,0,2.247,2.247h13.483a2.254,2.254,0,0,0,2.247-2.247V101.12A2.254,2.254,0,0,0,150.556,98.873Z" transform="translate(70.357 98.79)" fill="#fff"/>
  </g>
</svg>
