<svg xmlns="http://www.w3.org/2000/svg" xmlns:xlink="http://www.w3.org/1999/xlink" width="282.5" height="457.444" viewBox="0 0 282.5 457.444">
  <defs>
    <filter id="Icon_ionic-ios-pin" x="0" y="0" width="282.5" height="457.444" filterUnits="userSpaceOnUse">
      <feOffset dx="14" dy="3" input="SourceAlpha"/>
      <feGaussianBlur stdDeviation="4.5" result="blur"/>
      <feFlood flood-opacity="0.161"/>
      <feComposite operator="in" in2="blur"/>
      <feComposite in="SourceGraphic"/>
    </filter>
  </defs>
  <g id="toilet" transform="translate(-32 -22.5)">
    <g transform="matrix(1, 0, 0, 1, 32, 22.5)" filter="url(#Icon_ionic-ios-pin)">
      <path id="Icon_ionic-ios-pin-2" data-name="Icon ionic-ios-pin" d="M156.875,3.375c-82.26,0-128,61.98-128,138.342,0,107.611,128,292.1,128,292.1s127-184.491,127-292.1C283.875,65.355,239.135,3.375,156.875,3.375Z" transform="translate(-28.88 7.13)" fill="#888"/>
    </g>
    <path id="Icon_awesome-toilet" data-name="Icon awesome-toilet" d="M111.215,14.506a4.85,4.85,0,0,0,4.835-4.835V4.835A4.85,4.85,0,0,0,111.215,0H4.835A4.85,4.85,0,0,0,0,4.835V9.671a4.85,4.85,0,0,0,4.835,4.835H9.671V61.863C3.566,64.915,0,68.572,0,72.531a57.953,57.953,0,0,0,26.232,48.505l-6.467,21.215a9.663,9.663,0,0,0,9.248,12.481H87.037a9.663,9.663,0,0,0,9.248-12.481l-6.467-21.215A57.953,57.953,0,0,0,116.05,72.531c0-3.959-3.566-7.616-9.671-10.668V14.506ZM24.177,21.759a2.425,2.425,0,0,1,2.418-2.418H41.1a2.425,2.425,0,0,1,2.418,2.418v4.835A2.425,2.425,0,0,1,41.1,29.012H26.595a2.425,2.425,0,0,1-2.418-2.418ZM58.025,82.2c-23.3,0-42.189-4.322-42.189-9.671S34.724,62.86,58.025,62.86s42.189,4.322,42.189,9.671S81.326,82.2,58.025,82.2Z" transform="translate(101.95 93.489)" fill="#fff"/>
  </g>
</svg>
