<svg xmlns="http://www.w3.org/2000/svg" xmlns:xlink="http://www.w3.org/1999/xlink" width="282.5" height="457.445" viewBox="0 0 282.5 457.445">
  <defs>
    <filter id="vehicle" x="0" y="0" width="282.5" height="457.445" filterUnits="userSpaceOnUse">
      <feOffset dx="14" dy="3" input="SourceAlpha"/>
      <feGaussianBlur stdDeviation="4.5" result="blur"/>
      <feFlood flood-opacity="0.161"/>
      <feComposite operator="in" in2="blur"/>
      <feComposite in="SourceGraphic"/>
    </filter>
  </defs>
  <g transform="matrix(1, 0, 0, 1, 0, 0)" filter="url(#vehicle)">
    <path id="vehicle-2" data-name="vehicle" d="M376,316.444h0c-.08-.116-8.176-11.809-20-30.507-10.949-17.315-27.47-44.415-44-75.189-18.579-34.589-33.383-66.675-44-95.366A386.766,386.766,0,0,1,253.5,67.79c-1.783-7.818-3.15-15.366-4.062-22.433A165.3,165.3,0,0,1,248,24.342a168.383,168.383,0,0,1,8.432-53.831,129.824,129.824,0,0,1,24.72-43.976A113.406,113.406,0,0,1,321.3-103.123C337.637-110.341,356.042-114,376-114s38.3,3.66,54.547,10.878a111.875,111.875,0,0,1,39.8,29.658,129.627,129.627,0,0,1,24.377,43.976A171.03,171.03,0,0,1,503,24.342a166.57,166.57,0,0,1-1.426,21.014c-.905,7.068-2.261,14.616-4.031,22.433a389.034,389.034,0,0,1-14.387,47.592c-10.534,28.691-25.222,60.777-43.656,95.366-16.4,30.773-32.793,57.874-43.656,75.189C384.136,304.6,376.081,316.327,376,316.443ZM356.753,72.857h37.821a28.366,28.366,0,0,0,56.731,0h14.183a4.733,4.733,0,0,0,4.728-4.728V44.491A28.4,28.4,0,0,0,441.85,16.125h-4.728L404.98-24.053a18.825,18.825,0,0,0-14.768-7.1H327.007A18.821,18.821,0,0,0,309.45-19.264L295.294,16.793a18.877,18.877,0,0,0-14.182,18.243V68.129a4.733,4.733,0,0,0,4.728,4.728h14.182a28.366,28.366,0,0,0,56.731,0ZM422.94,87.039a14.183,14.183,0,1,1,14.182-14.182A14.2,14.2,0,0,1,422.94,87.039Zm-94.552,0A14.183,14.183,0,1,1,342.57,72.857,14.2,14.2,0,0,1,328.388,87.039ZM412.9,16.125H363.844V-12.24h26.368L412.9,16.124Zm-63.243,0h-34L327.007-12.24h22.655V16.124Z" transform="translate(-248 124.5)" fill="#23bfba"/>
  </g>
</svg>
