<svg xmlns="http://www.w3.org/2000/svg" xmlns:xlink="http://www.w3.org/1999/xlink" width="282.5" height="457.444" viewBox="0 0 282.5 457.444">
  <defs>
    <filter id="Icon_ionic-ios-pin" x="0" y="0" width="282.5" height="457.444" filterUnits="userSpaceOnUse">
      <feOffset dx="14" dy="3" input="SourceAlpha"/>
      <feGaussianBlur stdDeviation="4.5" result="blur"/>
      <feFlood flood-opacity="0.161"/>
      <feComposite operator="in" in2="blur"/>
      <feComposite in="SourceGraphic"/>
    </filter>
  </defs>
  <g id="vehicle" transform="translate(-32 -22.5)">
    <g transform="matrix(1, 0, 0, 1, 32, 22.5)" filter="url(#Icon_ionic-ios-pin)">
      <path id="Icon_ionic-ios-pin-2" data-name="Icon ionic-ios-pin" d="M156.875,3.375c-82.26,0-128,61.98-128,138.342,0,107.611,128,292.1,128,292.1s127-184.491,127-292.1C283.875,65.355,239.135,3.375,156.875,3.375Z" transform="translate(-28.88 7.13)" fill="#23bfba"/>
    </g>
    <path id="Icon_awesome-car-side" data-name="Icon awesome-car-side" d="M160.739,49.526h-4.728L123.869,9.347A18.918,18.918,0,0,0,109.1,2.25H45.9A18.909,18.909,0,0,0,28.339,14.137L14.183,50.194A18.866,18.866,0,0,0,0,68.437V101.53a4.726,4.726,0,0,0,4.728,4.728H18.91a28.366,28.366,0,1,0,56.731,0h37.821a28.366,28.366,0,0,0,56.731,0h14.183a4.726,4.726,0,0,0,4.728-4.728V77.892A28.365,28.365,0,0,0,160.739,49.526ZM47.276,120.44a14.183,14.183,0,1,1,14.183-14.183A14.2,14.2,0,0,1,47.276,120.44ZM68.55,49.526h-34L45.9,21.16H68.55Zm14.183,0V21.16H109.1l22.693,28.366Zm59.1,70.914a14.183,14.183,0,1,1,14.183-14.183A14.2,14.2,0,0,1,141.828,120.44Z" transform="translate(65.111 113.599)" fill="#fff"/>
  </g>
</svg>
